<?xml version="1.0" encoding="utf-8"?>
<!-- Generator: Adobe Illustrator 27.5.0, SVG Export Plug-In . SVG Version: 6.00 Build 0)  -->
<svg version="1.1" id="Layer_1" xmlns="http://www.w3.org/2000/svg" xmlns:xlink="http://www.w3.org/1999/xlink" x="0px" y="0px"
	 viewBox="0 0 197.5 64" style="enable-background:new 0 0 197.5 64;" xml:space="preserve">
<style type="text/css">
	.st0{fill:#98C356;}
	.st1{fill:#58595B;}
</style>
<g>
	<path class="st0" d="M189,33.7c0.1,0,2.4,2,1.6,4.5s-2.2,3.6-3.8,4c-0.1,0-0.1,0.2-0.2,0.2c-4.2,7.3-8.5,7.6-12.6,7.2
		c-2.2-0.2-4.5-1.4-6.4-2.2c-1.1,1.5-2.4,3-3.6,4.4c-2.5,2.4-5.6,2.8-8.8,2.4c-1.7-0.2-3.3-0.8-5-0.9c-1.7,0-3.3,0.6-4.5,1.7
		c12.7,11.2,32.1,9.9,43.2-2.8c6.8-7.7,9.2-18.3,6.6-28.2C192.8,26.9,190.6,30.1,189,33.7"/>
	<path class="st0" d="M142.2,41.8l1.6-1.8c0.5-0.6,1.4-0.6,2-0.1l0,0l1.2,1.1l1.1-1.2c0.5-0.6,1.4-0.6,2-0.1l1.8,1.6
		c0.6,0.5,0.6,1.5,0.1,2l-1.6,1.8c-0.5,0.6-1.4,0.6-2,0.1l-1.2-1.2l-1.2,1.2c-0.5,0.6-1.4,0.6-2,0.1c0,0,0,0,0,0l-1.8-1.6
		C141.7,43.3,141.7,42.4,142.2,41.8 M149.6,48.9c2.5,0.2,4.8,1.1,7.3,1.1c0.8,0.1,1.6,0,2.4-0.1c2.4-0.5,4.4-2,5.6-4.1
		c1.8-3,2.6-6.6,3.1-10.2c1.2-9.7-0.6-19.5-8.7-24.8c-2.5,3.8-3.5,7.3-4.1,12.2c-0.9,7.2,0.8,14.5,4.8,20.5l-0.3-0.2
		c-2.2-2.1-3.9-4.6-5.1-7.4c-1.8-4-3.2-9.1-2.8-13.9c0.4-5.6,2.7-11.7,6.7-14.8C164.6,9,168.8,15,170.4,20c1.6,5,2,10.2,1.2,15.4
		c-0.5,4-1.7,8-3.6,11.6l0,0c0.7,0.1,1.5,0.2,2.2,0.3c3.8,0.3,9.8,0,11.5-6.7c-0.5-0.8-0.8-1.6-1-2.5c-0.2-0.7-0.3-1.3,0.4-2.9
		s1.9-2.2,4-2.5c1.8-3.8,4.3-7.2,7.4-10c-8.1-0.5-10.9,3.1-11.4,2.5c-0.1-0.2-2.9-3.4-2.4-3.6c10.1-3.4,13.8-2.6,14.8-2.8
		C186.1,3.4,167.8-3,152.6,4.4S130.9,30,138.3,45.3c1.4,2.8,3.2,5.5,5.4,7.8C144.8,50.6,146.2,48.6,149.6,48.9"/>
	<path class="st1" d="M5.7,18.6H5.1v-0.8h0.6V18.6z M4.5,18.6H3.8v-0.8h0.7V18.6z M11.1,13.9h-1c-0.3,0-0.6-0.1-0.8-0.3
		c-0.3-0.3-0.5-0.6-0.5-1C8.7,12,8.5,11.5,8.3,11c-0.2-0.5-0.7-0.9-1.3-0.9c-0.8,0-1.5,0.7-1.5,1.5c0,0,0,0.1,0,0.1h2.2l0,1.4
		c0,0.9-0.2,1.7-0.8,2.4c-0.6,0.7-1.4,1-2.3,1c-0.9,0-1.7-0.4-2.2-1c-0.6-0.6-0.9-1.5-0.9-2.4v-1.3h0.6v1.4c0,0.7,0.2,1.4,0.7,2
		c0.8,1,2.3,1.1,3.3,0.3c0.1-0.1,0.2-0.2,0.3-0.3c0.5-0.5,0.7-1.2,0.7-2l-0.1-0.8H4.8c0-1.9,0.8-2.9,2.2-2.9c0.7,0,1.4,0.4,1.7,1
		c0.3,0.6,0.5,1.3,0.6,2c0.1,0.6,0.4,0.9,0.9,0.9h0.8L11.1,13.9L11.1,13.9z"/>
	<rect x="10.9" y="13.3" class="st1" width="4.5" height="0.6"/>
	<rect x="14.5" y="13.3" class="st1" width="2.3" height="0.6"/>
	<path class="st1" d="M19.2,15.9h-0.6v-0.8h0.6V15.9z M19.5,12.4c0,0.4-0.1,0.8-0.4,1.1c-0.3,0.3-0.7,0.5-1.1,0.4h-1.4v-0.6H18
		c0.5,0.1,0.9-0.3,0.9-0.7c0-0.1,0-0.2,0-0.3V9.5h0.6L19.5,12.4L19.5,12.4z"/>
	<path class="st1" d="M26.1,13.9h-1c-0.3,0-0.6-0.1-0.8-0.3c-0.2-0.2-0.3-0.4-0.4-0.6c0,0.9-0.3,1.8-0.8,2.5c-0.5,0.6-1.3,1-2.2,1.1
		c-0.1-0.1-0.2-0.3-0.2-0.5c0.8,0,1.4-0.4,1.9-1c0.5-0.6,0.7-1.3,0.7-2.1V9.5h0.7v2.4c0,0.4,0.1,0.8,0.4,1.1
		c0.2,0.2,0.5,0.4,0.8,0.4h1.1L26.1,13.9L26.1,13.9z"/>
	<path class="st1" d="M32.2,10.4c-0.3-0.2-0.6-0.4-1-0.6c-0.5-0.2-1-0.3-1.6-0.3c-0.5,0-1,0.1-1.5,0.2c-0.4,0.2-0.8,0.4-1.2,0.6
		c1.2,0.4,2.3,1.1,3,2.2C30.9,12,31.6,11.3,32.2,10.4 M33.4,13.9h-2.3c-0.5,0-0.9-0.2-1.2-0.6c-0.6,0.4-1.4,0.6-2.1,0.6h-1.9v-0.6
		h1.9c0.6,0,1.2-0.2,1.8-0.5c-1-1.2-2-1.9-3-2V10c0.3-0.2,0.6-0.5,0.9-0.6C28.1,9.1,28.8,9,29.6,9c0.8,0,1.5,0.2,2.2,0.5
		c0.4,0.2,0.7,0.5,1,0.8c-0.7,1.1-1.5,2-2.6,2.7c0.2,0.2,0.4,0.3,0.7,0.3h2.5L33.4,13.9L33.4,13.9z"/>
	<path class="st1" d="M36.1,12.4c0,0.4-0.1,0.8-0.3,1.1c-0.3,0.3-0.7,0.5-1.1,0.4h-1.4v-0.6h1.3c0.6,0,0.9-0.3,0.9-1V6h0.6
		C36.1,7.7,36.1,9.8,36.1,12.4"/>
	<polygon class="st1" points="38.9,6 39,13.9 39.6,13.9 39.6,6 	"/>
	<path class="st1" d="M47.8,8.3h-0.7V7.5h0.7V8.3z M50.1,13.9h-1c-0.3,0-0.6-0.1-0.8-0.3c-0.2-0.2-0.3-0.4-0.4-0.6
		c0,0.9-0.3,1.8-0.9,2.5c-0.5,0.6-1.3,1-2.2,1.1c-0.1-0.1-0.1-0.3-0.2-0.5c0.8,0,1.4-0.4,1.9-1c0.5-0.6,0.7-1.3,0.7-2.1V9.5h0.7v2.4
		c0,0.4,0.1,0.8,0.4,1.1c0.2,0.2,0.5,0.4,0.8,0.4h1.1L50.1,13.9L50.1,13.9z"/>
	<rect x="49.8" y="13.3" class="st1" width="2.3" height="0.6"/>
	<rect x="51.4" y="13.3" class="st1" width="2.3" height="0.6"/>
	<path class="st1" d="M59.7,13.9h-6.2v-0.6H59c0-0.9-0.2-1.8-0.7-2.5c-0.4-0.6-1-0.9-1.7-0.9c-0.6,0-1.1,0.2-1.6,0.5l-0.3-0.5
		L57.1,7l0.4,0.4l-1.9,2.2c0.3-0.1,0.6-0.2,0.9-0.2c1,0,2,0.5,2.5,1.4C59.5,11.8,59.7,12.9,59.7,13.9"/>
	<path class="st1" d="M66.2,13.9h-1c-0.3,0-0.6-0.1-0.8-0.3c-0.2-0.2-0.3-0.4-0.4-0.6c0,0.9-0.3,1.8-0.9,2.5c-0.5,0.6-1.3,1-2.1,1.1
		c-0.1-0.1-0.2-0.3-0.3-0.5c0.8,0,1.4-0.4,1.9-1c0.5-0.6,0.7-1.3,0.7-2.1V9.5h0.6v2.4c0,0.4,0.1,0.8,0.4,1.1
		c0.2,0.2,0.5,0.4,0.8,0.4h1.1L66.2,13.9L66.2,13.9z"/>
	<path class="st1" d="M70.7,12.8c0-0.5-0.1-1-0.4-1.4c-0.2-0.3-0.6-0.5-0.9-0.5c-0.8,0-1.3,0.7-1.3,1.8c0,0.5,0.1,1,0.4,1.4
		c0.2,0.3,0.6,0.5,0.9,0.5C70.1,14.7,70.7,14,70.7,12.8 M72.6,14h-1.5c-0.3,0.7-1,1.2-1.7,1.1c-0.8,0-1.5-0.4-1.8-1.1H66v-0.6h1.4
		c0-0.2-0.1-0.4-0.1-0.6c0-1.4,0.7-2.3,1.9-2.3c0.6,0,1.2,0.2,1.5,0.7c0.3,0.4,0.5,1,0.5,1.6c0,0.2,0,0.4-0.1,0.6h1.3L72.6,14
		L72.6,14z"/>
	<path class="st1" d="M75.3,12.4c0,0.4-0.1,0.8-0.4,1.1c-0.3,0.3-0.7,0.5-1.1,0.4h-1.4v-0.6h1.3c0.6,0,0.9-0.3,0.9-1V6h0.6
		C75.3,7.7,75.3,9.8,75.3,12.4"/>
	<polygon class="st1" points="78.1,6 78.1,13.9 78.8,13.9 78.7,6 	"/>
	<rect x="84.7" y="11" class="st1" width="5.1" height="0.5"/>
	<path class="st1" d="M99,7.5h-0.7V6.7H99V7.5z M97.7,7.5h-0.7V6.7h0.7V7.5z M98.9,11.9V10c-0.1-0.2-0.3-0.4-0.5-0.6
		c-0.2-0.2-0.5-0.2-0.8-0.2c-0.3,0-0.6,0.2-0.8,0.4c-0.2,0.4-0.4,0.8-0.3,1.3c0,0.7,0.3,1,0.8,1L98.9,11.9L98.9,11.9z M101.5,13.9
		h-1.3c-0.4,0-0.7-0.2-0.9-0.5c-0.2-0.3-0.3-0.6-0.3-1h-1.8c-0.9,0-1.4-0.5-1.4-1.6c0-0.6,0.2-1.2,0.6-1.7c0.3-0.3,0.7-0.5,1.1-0.5
		c0.6,0,1.1,0.3,1.5,0.7V8.8h0.6v3.8c0,0.5,0.2,0.8,0.6,0.8h1.3L101.5,13.9L101.5,13.9z"/>
	<rect x="101.3" y="13.3" class="st1" width="2.3" height="0.6"/>
	<rect x="102.8" y="13.3" class="st1" width="2.3" height="0.6"/>
	<path class="st1" d="M110.1,13.9h-1c-0.3,0-0.7-0.1-0.9-0.4c-0.2-0.2-0.3-0.4-0.4-0.7c-0.1,0.4-0.3,0.7-0.7,0.9
		c-0.3,0.2-0.6,0.2-0.9,0.2h-1.3v-0.6h1.1c0.2,0,0.5-0.1,0.7-0.2c0.3-0.2,0.4-0.5,0.4-0.8c0-2,0-4.1-0.1-6.3h0.6
		c0,2.2,0,4.1,0.1,5.9c0,0.4,0.1,0.8,0.4,1.1c0.2,0.2,0.5,0.4,0.8,0.4h1.1L110.1,13.9L110.1,13.9z"/>
	<path class="st1" d="M114.5,12.8c0-0.5-0.1-1-0.4-1.4c-0.2-0.3-0.6-0.5-0.9-0.5c-0.8,0-1.3,0.7-1.3,1.8c0,0.5,0.1,1,0.4,1.4
		c0.2,0.3,0.6,0.5,0.9,0.5C114,14.6,114.5,13.9,114.5,12.8 M119.8,14h-4.8c-0.3,0.7-1,1.2-1.8,1.1c-0.8,0-1.5-0.4-1.8-1.1h-1.6v-0.6
		h1.4c-0.1-0.2-0.1-0.4-0.1-0.6c0-1.4,0.7-2.3,1.9-2.3c0.6,0,1.2,0.2,1.5,0.7c0.4,0.4,0.6,1,0.5,1.6c0,0.2,0,0.4-0.1,0.6h4.7
		L119.8,14L119.8,14z"/>
	<path class="st1" d="M125.5,13.9h-5.9v-0.6h5.2c0-0.9-0.2-1.8-0.7-2.5c-0.4-0.6-1-0.9-1.7-0.9c-0.6,0-1.1,0.1-1.6,0.4l-0.2-0.5
		c0.6-0.3,1.2-0.5,1.8-0.5c1.1,0,2,0.5,2.5,1.4C125.3,11.8,125.6,12.9,125.5,13.9"/>
	<path class="st1" d="M5.3,32.1H4.6v-0.8h0.6V32.1z M4,32.1H3.3v-0.8H4V32.1z M10.6,27.4h-1c-0.3,0-0.6-0.1-0.8-0.3
		c-0.3-0.3-0.5-0.6-0.5-1C8.2,25.6,8,25,7.8,24.5c-0.2-0.5-0.7-0.9-1.3-0.9c-0.8,0-1.5,0.7-1.5,1.5c0,0,0,0.1,0,0.1h2.2l0,1.4
		c0,0.9-0.2,1.7-0.8,2.4c-0.6,0.7-1.4,1-2.3,1c-0.9,0-1.7-0.4-2.2-1C1.3,28.4,1,27.5,1,26.6V26c0-0.3,0-0.6,0-0.8h0.6v1.4
		c0,0.7,0.3,1.4,0.8,2c0.8,1,2.3,1.2,3.3,0.3c0.1-0.1,0.2-0.2,0.3-0.3c0.5-0.5,0.7-1.2,0.6-2l0-0.8H4.3c0-1.9,0.8-2.9,2.2-2.9
		c0.7,0,1.4,0.3,1.7,0.9c0.3,0.6,0.5,1.3,0.6,2c0.1,0.6,0.4,0.9,0.9,0.9h0.8L10.6,27.4L10.6,27.4z"/>
	<rect x="10.4" y="26.9" class="st1" width="2.4" height="0.6"/>
	<rect x="10.4" y="26.9" class="st1" width="2.4" height="0.6"/>
	<path class="st1" d="M17.8,27.4h-5.2v-0.6h2c-0.5-0.5-0.8-1.1-0.8-1.8c0-0.6,0.2-1.2,0.6-1.6c0.4-0.4,0.9-0.6,1.4-0.6
		c0.6,0,1.2,0.2,1.6,0.7L17,24c-0.3-0.4-0.7-0.6-1.1-0.6c-0.3,0-0.6,0.2-0.8,0.4c-0.7,0.7-0.7,1.8,0,2.6c0.3,0.3,0.7,0.5,1.2,0.5
		h1.4L17.8,27.4L17.8,27.4z"/>
	<path class="st1" d="M22.8,27.4h-1.5c-0.3,0-0.6-0.1-0.8-0.3c-0.3-0.2-0.4-0.6-0.4-1l0-6.6h0.6l0.1,6.5c0,0.4,0.3,0.8,0.7,0.8h1.3
		L22.8,27.4L22.8,27.4z"/>
	<path class="st1" d="M27.3,26.3c0-0.5-0.1-1-0.4-1.4c-0.2-0.3-0.5-0.5-0.9-0.5c-0.8,0-1.3,0.7-1.3,1.8c0,0.5,0.1,1,0.4,1.4
		c0.2,0.3,0.5,0.5,0.9,0.5C26.7,28.2,27.3,27.5,27.3,26.3 M29.2,27.5h-1.5c-0.3,0.7-1,1.2-1.8,1.1c-0.8,0-1.5-0.4-1.8-1.1h-1.6v-0.6
		H24c0-0.2-0.1-0.4-0.1-0.6c0-1.4,0.7-2.3,1.9-2.3c0.6,0,1.1,0.2,1.5,0.7c0.4,0.4,0.5,1,0.5,1.6c0,0.2,0,0.4,0,0.6h1.3V27.5
		L29.2,27.5z"/>
	<path class="st1" d="M32.4,21.8h-0.6V21h0.6V21.8z M31.1,21.8h-0.7V21h0.7V21.8z M34.1,27.4h-1c-0.3,0-0.7-0.1-0.9-0.4
		c-0.2-0.2-0.3-0.5-0.4-0.7c-0.1,0.4-0.3,0.7-0.7,0.9c-0.3,0.2-0.6,0.2-0.9,0.2H29v-0.6h1.1c0.2,0,0.5-0.1,0.7-0.2
		c0.3-0.2,0.4-0.5,0.4-0.8V23h0.6v2.4c0,0.4,0.1,0.8,0.4,1.1c0.2,0.2,0.5,0.4,0.8,0.4h1.1L34.1,27.4L34.1,27.4z"/>
	<path class="st1" d="M37.2,29.4h-0.6v-0.8h0.7L37.2,29.4z M39.8,27.4h-5.9v-0.6h5.2c0-0.9-0.2-1.8-0.7-2.5c-0.4-0.6-1-0.9-1.7-0.9
		c-0.6,0-1.1,0.2-1.6,0.4l-0.2-0.5c0.5-0.3,1.2-0.5,1.8-0.5c1,0,2,0.5,2.5,1.5C39.6,25.3,39.9,26.4,39.8,27.4"/>
	<path class="st1" d="M43.1,25.8c-0.2,0.1-0.4,0.2-0.7,0.1c0-1,0-3.1,0-6.4H43L43.1,25.8L43.1,25.8z M45.3,25c0,1.6-0.9,2.5-2.7,2.5
		h-0.8v-0.6h0.7c0.5,0,0.9-0.1,1.3-0.3c0.5-0.3,0.8-0.9,0.8-1.5c0-0.2,0-2-0.1-5.4h0.6L45.3,25L45.3,25z"/>
	<polygon class="st1" points="47.7,19.6 47.7,27.4 48.3,27.4 48.3,19.6 	"/>
	<path class="st1" d="M58.9,25.2c0-0.5-0.1-1-0.4-1.4c-0.2-0.3-0.6-0.5-0.9-0.5c-0.8,0-1.3,0.7-1.3,1.9c0,0.5,0.1,1,0.4,1.4
		c0.2,0.3,0.6,0.5,0.9,0.5C58.4,27,58.9,26.3,58.9,25.2 M59.6,25.2c0,1.5-0.7,2.3-1.9,2.3c-0.6,0-1.2-0.3-1.6-0.8
		c-0.3-0.5-0.5-1.1-0.4-1.7h-0.9c-0.5,0-0.8,0.4-0.8,1.1l0.1,4h-0.6l-0.1-4.2c0-1,0.5-1.5,1.5-1.5h1c0.2-0.9,1-1.5,1.8-1.4
		c0.6,0,1.2,0.2,1.5,0.7C59.4,24,59.6,24.6,59.6,25.2"/>
	<path class="st1" d="M62.8,25.8C62.6,26,62.4,26,62.2,26c0-1,0-3.1-0.1-6.4h0.6L62.8,25.8z M67.4,27.4h-1c-0.3,0-0.7-0.1-0.9-0.4
		c-0.2-0.2-0.3-0.5-0.4-0.7c0-0.1-0.1-0.3-0.1-0.5c-0.3,1-1.2,1.6-2.6,1.6h-0.8v-0.6h0.7c0.5,0,0.9-0.1,1.3-0.4
		c0.5-0.3,0.8-0.9,0.8-1.5c0-0.2,0-2-0.1-5.4H65c0,1.3,0,3.2,0.1,5.9c0,0.4,0.2,0.8,0.4,1.1c0.2,0.2,0.4,0.4,0.7,0.4h1.1L67.4,27.4
		L67.4,27.4z"/>
	<rect x="67.2" y="26.9" class="st1" width="2.3" height="0.6"/>
	<rect x="67.2" y="26.9" class="st1" width="2.3" height="0.6"/>
	<path class="st1" d="M74.6,27.4h-5.2v-0.6h2c-0.5-0.5-0.8-1.1-0.8-1.8c0-0.6,0.2-1.2,0.6-1.6c0.4-0.4,0.9-0.6,1.4-0.6
		c0.6,0,1.2,0.2,1.6,0.7L73.8,24c-0.3-0.4-0.7-0.6-1.1-0.6c-0.3,0-0.6,0.2-0.8,0.4c-0.4,0.3-0.6,0.8-0.5,1.4c0,0.5,0.2,0.9,0.5,1.2
		c0.3,0.3,0.7,0.5,1.2,0.5h1.4L74.6,27.4L74.6,27.4z"/>
	<path class="st1" d="M77.8,25.8c-0.2,0.1-0.4,0.2-0.7,0.2c0-1,0-3.2-0.1-6.4h0.6L77.8,25.8L77.8,25.8z M80.1,25
		c0,1.6-0.9,2.5-2.7,2.5h-0.8v-0.6h0.7c0.5,0,0.9-0.1,1.3-0.3c0.5-0.3,0.8-0.9,0.8-1.5c0-0.2,0-2-0.1-5.4H80L80.1,25L80.1,25z
		 M78.4,30.1h-2l0.2-0.3h0.6c-0.2-0.2-0.3-0.4-0.3-0.6c0-0.5,0.3-0.9,0.8-0.9c0.3,0,0.5,0.1,0.7,0.3l-0.2,0.3
		c-0.1-0.2-0.3-0.3-0.4-0.2c-0.4,0-0.5,0.2-0.5,0.6c0,0.3,0.3,0.6,0.6,0.6c0,0,0.1,0,0.1,0h0.4L78.4,30.1L78.4,30.1z"/>
	<polygon class="st1" points="82.4,19.6 82.5,27.4 83.1,27.4 83.1,19.6 	"/>
	<path class="st1" d="M92.6,27.4h-1c-0.3,0-0.6-0.1-0.8-0.3c-0.2-0.2-0.3-0.4-0.4-0.6c0,0.9-0.3,1.8-0.9,2.5
		c-0.5,0.7-1.3,1.1-2.1,1.1c-0.1-0.1-0.1-0.3-0.2-0.5c0.8,0,1.4-0.4,1.9-1c0.5-0.6,0.7-1.3,0.7-2.1V23h0.7v2.4
		c0,0.4,0.1,0.8,0.4,1.1c0.2,0.2,0.5,0.4,0.8,0.4h1.1C92.6,26.9,92.6,27.4,92.6,27.4z"/>
	<rect x="92.3" y="26.9" class="st1" width="2.3" height="0.6"/>
	<rect x="92.4" y="26.9" class="st1" width="2.3" height="0.6"/>
	<path class="st1" d="M97.1,29.4h-0.6v-0.8h0.6V29.4z M95.8,29.4h-0.6v-0.8h0.6V29.4z M97.4,25.9c0,0.4-0.1,0.8-0.3,1.1
		c-0.3,0.3-0.7,0.5-1.1,0.4h-1.4v-0.6h1.3c0.5,0.1,0.9-0.3,0.9-0.7c0-0.1,0-0.2,0-0.3V23h0.6V25.9L97.4,25.9z"/>
	<path class="st1" d="M102.9,26.9c0-2.4,0.2-3.5-1-3.5c-0.8,0-1.3,0.8-1.3,1.8c0,0.8,0.5,1.6,1.3,1.6
		C101.8,26.9,102.9,26.9,102.9,26.9z M105.1,27.4h-1.7c-0.3,1.4-1.5,2.4-2.9,2.6c-0.1-0.2-0.2-0.4-0.3-0.5c1.2-0.1,2.2-0.9,2.5-2.1
		h-1.2c-1.1,0-1.8-1-1.8-2.2c-0.1-1.1,0.8-2.1,1.9-2.2c0,0,0,0,0,0c1.2,0,1.8,0.6,1.8,1.9v2h1.6L105.1,27.4L105.1,27.4z"/>
	<path class="st1" d="M112.3,26.9c0-0.5-0.1-1.1-0.2-1.6c-0.3-1.1-0.9-1.7-1.7-1.7c-0.6,0-1.2,0.1-1.7,0.5c-0.9,0.7-1.7,1.7-2,2.8
		H112.3L112.3,26.9z M114.3,27.4h-9.4v-0.6h1.2v-6.6h0.6l-0.1,5.9c0.4-1,1-1.9,1.9-2.6c0.5-0.3,1.1-0.5,1.7-0.5c0.1,0,0.2,0,0.2,0
		c1.5,0.2,2.4,1.4,2.5,3.8h1.4L114.3,27.4L114.3,27.4z"/>
	<path class="st1" d="M117.5,21.8h-0.6V21h0.6V21.8z M116.2,21.8h-0.7V21h0.7V21.8z M119.2,27.4h-1c-0.3,0-0.7-0.1-0.9-0.4
		c-0.2-0.2-0.3-0.5-0.4-0.7c-0.1,0.4-0.3,0.7-0.7,0.9c-0.3,0.2-0.6,0.2-0.9,0.2H114v-0.6h1.1c0.2,0,0.5-0.1,0.7-0.2
		c0.3-0.2,0.4-0.5,0.4-0.8V23h0.6v2.4c0,0.4,0.1,0.8,0.4,1.1c0.2,0.2,0.5,0.4,0.8,0.4h1.1L119.2,27.4L119.2,27.4z"/>
	<path class="st1" d="M125.5,25.9c0,0.4-0.1,0.8-0.4,1.1c-0.3,0.3-0.7,0.5-1.1,0.4H119v-0.6h5c0.6,0,0.9-0.3,0.9-1v-6.3h0.6
		C125.5,21.3,125.5,23.4,125.5,25.9"/>
	<polygon class="st1" points="2.4,37.3 6.4,37.3 6.4,37.9 3.7,44.6 2.9,44.6 5.7,37.9 2.4,37.9 	"/>
	<path class="st1" d="M10.6,41.9c-0.6,0-1.2,0.2-1.7,0.5c-0.2,0.2-0.4,0.5-0.4,0.8c0,0.2,0.1,0.5,0.3,0.7S9.2,44,9.4,44
		c0.3,0,0.6-0.2,0.8-0.4c0.2-0.3,0.3-0.7,0.3-1.1C10.6,42.6,10.6,41.9,10.6,41.9z M8.2,39.7c0.4-0.3,0.9-0.4,1.4-0.5
		c0.5,0,0.9,0.1,1.2,0.5c0.3,0.4,0.4,0.8,0.4,1.3v2.7c0,0.1,0.1,0.3,0.2,0.3c0,0,0,0,0.1,0c0.1,0,0.2,0,0.3-0.1v0.6
		c-0.2,0.1-0.4,0.1-0.5,0.1c-0.5,0-0.7-0.3-0.7-0.8c-0.1,0.2-0.4,0.5-0.6,0.6c-0.2,0.1-0.5,0.2-0.7,0.2c-0.4,0-0.8-0.1-1-0.4
		c-0.3-0.3-0.4-0.7-0.4-1.1c0-0.4,0.2-0.9,0.5-1.2c0.3-0.3,1.1-0.5,2.2-0.6v-0.5c0-0.3-0.1-0.5-0.3-0.7c-0.2-0.2-0.4-0.3-0.7-0.3
		c-0.5,0-1,0.2-1.4,0.6L8.2,39.7L8.2,39.7z"/>
	<path class="st1" d="M16.1,40.1c0.1-0.3,0.3-0.5,0.5-0.7c0.2-0.2,0.5-0.2,0.7-0.2c0.4,0,0.7,0.1,0.9,0.4c0.2,0.3,0.4,0.7,0.3,1v3.9
		h-0.7v-3.8c0-0.2-0.1-0.4-0.2-0.6c-0.1-0.1-0.3-0.2-0.5-0.2c-0.3,0-0.6,0.2-0.7,0.4c-0.2,0.3-0.3,0.6-0.3,0.9v3.3h-0.7v-3.9
		c0-0.2,0-0.4-0.2-0.6c-0.1-0.1-0.3-0.2-0.5-0.2c-0.3,0-0.6,0.2-0.8,0.4c-0.2,0.3-0.3,0.7-0.3,1v3.2h-0.7v-5.2h0.6l0.1,0.7
		c0.1-0.2,0.3-0.4,0.5-0.6c0.2-0.1,0.4-0.2,0.7-0.2c0.3,0,0.5,0.1,0.7,0.2C15.9,39.7,16.1,39.9,16.1,40.1"/>
	<rect x="20.4" y="37" class="st1" width="0.7" height="7.6"/>
	<path class="st1" d="M25.7,41.2c0-0.3-0.1-0.7-0.3-1c-0.2-0.2-0.5-0.3-0.7-0.3c-0.3,0-0.6,0.1-0.8,0.3c-0.3,0.3-0.4,0.6-0.5,1H25.7
		L25.7,41.2z M26.3,44c-0.5,0.4-1,0.6-1.6,0.7c-0.6,0-1.2-0.3-1.5-0.7c-0.4-0.6-0.6-1.2-0.6-1.9c0-0.7,0.2-1.4,0.6-2
		c0.3-0.5,0.9-0.8,1.5-0.8c0.5,0,1,0.2,1.3,0.6c0.3,0.4,0.5,1,0.5,1.5v0.3h-3.2V42c0,0.5,0.1,1.1,0.4,1.5c0.2,0.3,0.6,0.5,1,0.5
		c0.6,0,1.2-0.4,1.6-0.9L26.3,44L26.3,44z"/>
	<path class="st1" d="M27.9,37h0.7v3.1c0.2-0.2,0.3-0.4,0.6-0.6c0.2-0.1,0.5-0.2,0.8-0.2c0.4,0,0.8,0.2,1,0.5
		c0.3,0.3,0.4,0.7,0.4,1.1v3.7h-0.7v-3.7c0-0.2-0.1-0.5-0.2-0.7c-0.2-0.2-0.4-0.3-0.6-0.3c-0.3,0-0.7,0.2-0.8,0.4
		c-0.2,0.3-0.4,0.7-0.3,1v3.2h-0.7C27.9,44.6,27.9,37,27.9,37z"/>
	<rect x="35.9" y="41.6" class="st1" width="2.4" height="0.7"/>
	<polygon class="st1" points="42.5,37 46.7,37 46.7,37.6 45,37.6 45,44.6 44.2,44.6 44.2,37.6 42.5,37.6 	"/>
	<path class="st1" d="M48.3,37h0.7v3.1c0.2-0.2,0.3-0.4,0.6-0.6c0.2-0.1,0.5-0.2,0.8-0.2c0.4,0,0.8,0.2,1,0.5
		c0.3,0.3,0.4,0.7,0.4,1.1v3.7H51v-3.7c0-0.2-0.1-0.5-0.2-0.7c-0.2-0.2-0.4-0.3-0.6-0.3c-0.3,0-0.7,0.2-0.8,0.4
		c-0.2,0.3-0.4,0.7-0.3,1v3.2h-0.7L48.3,37L48.3,37z"/>
	<path class="st1" d="M56.3,41.2c0-0.3-0.1-0.7-0.3-1c-0.2-0.2-0.4-0.3-0.7-0.3c-0.3,0-0.6,0.1-0.8,0.3c-0.3,0.3-0.4,0.6-0.5,1
		C54,41.2,56.3,41.2,56.3,41.2z M56.9,44c-0.4,0.4-1,0.6-1.6,0.7c-0.6,0-1.2-0.3-1.5-0.7c-0.4-0.6-0.6-1.2-0.6-1.9
		c0-0.7,0.2-1.4,0.6-2c0.3-0.5,0.9-0.8,1.5-0.8c0.5,0,1,0.2,1.3,0.6c0.3,0.4,0.5,1,0.5,1.5v0.3h-3.1V42c0,0.5,0.1,1.1,0.4,1.5
		c0.2,0.3,0.6,0.5,1,0.5c0.6,0,1.2-0.4,1.6-0.9L56.9,44L56.9,44z"/>
	<path class="st1" d="M63.4,37.9l-0.8,3.4h1.7L63.4,37.9L63.4,37.9z M63.1,37h0.7l2.1,7.6h-0.8l-0.6-2.6h-2l-0.6,2.6H61L63.1,37
		L63.1,37z"/>
	<path class="st1" d="M67.8,40.1c0.2-0.2,0.3-0.5,0.6-0.6c0.2-0.1,0.4-0.2,0.7-0.2c0.2,0,0.4,0,0.5,0.1V40c-0.2-0.1-0.3-0.1-0.5-0.1
		c-0.3,0-0.7,0.2-0.9,0.5c-0.2,0.3-0.3,0.7-0.3,1.1v3.1h-0.7v-5.2h0.6L67.8,40.1L67.8,40.1z"/>
	<path class="st1" d="M73.5,41.9c-0.6,0-1.2,0.2-1.7,0.5c-0.2,0.2-0.4,0.5-0.3,0.8c0,0.2,0.1,0.5,0.3,0.7c0.2,0.2,0.4,0.3,0.7,0.3
		c0.3,0,0.6-0.2,0.8-0.4c0.2-0.3,0.3-0.7,0.3-1.1V41.9z M71.2,39.7c0.4-0.3,0.9-0.4,1.4-0.5c0.5,0,0.9,0.1,1.2,0.5
		c0.3,0.4,0.4,0.8,0.4,1.3v2.7c0,0.2,0.1,0.3,0.3,0.3c0.1,0,0.2,0,0.3-0.1v0.6c-0.2,0.1-0.3,0.1-0.5,0.1c-0.5,0-0.7-0.3-0.7-0.8
		c-0.2,0.2-0.3,0.5-0.6,0.6c-0.2,0.1-0.5,0.2-0.7,0.2c-0.4,0-0.8-0.2-1-0.5c-0.3-0.3-0.4-0.7-0.4-1.1c0-0.4,0.2-0.9,0.5-1.2
		c0.3-0.3,1.1-0.5,2.2-0.6v-0.5c0-0.5-0.4-1-0.9-1c0,0-0.1,0-0.1,0c-0.5,0-1,0.2-1.4,0.6C71.2,40.5,71.2,39.7,71.2,39.7z"/>
	<path class="st1" d="M76.9,43.5c0.1,0.2,0.3,0.3,0.5,0.4c0.2,0.1,0.3,0.1,0.5,0.2c0.4,0,0.8-0.2,1-0.6c0.3-0.5,0.4-1,0.4-1.5
		c0-0.5-0.1-1-0.3-1.5c-0.2-0.3-0.5-0.6-0.9-0.6c-0.3,0-0.7,0.2-0.8,0.5c-0.2,0.3-0.3,0.7-0.3,1.1L76.9,43.5L76.9,43.5z M76.9,36.9
		v3.2c0.2-0.3,0.3-0.5,0.6-0.7c0.2-0.1,0.4-0.2,0.7-0.2c0.6,0,1.1,0.3,1.3,0.8c0.3,0.6,0.5,1.2,0.5,1.9c0,0.7-0.2,1.4-0.6,2
		c-0.3,0.5-0.8,0.8-1.4,0.8c-0.2,0-0.4,0-0.5-0.1c-0.2-0.1-0.4-0.3-0.6-0.5l-0.2,0.5h-0.5v-7.7L76.9,36.9L76.9,36.9z"/>
	<path class="st1" d="M88.3,44.2c-0.4,0.3-0.9,0.4-1.4,0.5c-0.5,0-1-0.2-1.4-0.5c-0.4-0.4-0.7-0.9-0.8-1.4c-0.2-0.6-0.3-1.3-0.3-2
		c-0.1-1,0.2-2,0.7-2.8c0.4-0.7,1.1-1.1,1.9-1.1c0.5,0,1,0.2,1.4,0.5v0.9c-0.3-0.4-0.8-0.6-1.3-0.7c-0.6,0-1.1,0.4-1.3,0.9
		c-0.4,0.8-0.5,1.6-0.5,2.5c0,0.8,0.1,1.5,0.5,2.2c0.2,0.5,0.7,0.9,1.3,0.9c0.5,0,1-0.3,1.4-0.7L88.3,44.2L88.3,44.2z"/>
	<path class="st1" d="M92.5,41.2c0-0.3-0.1-0.7-0.3-1c-0.2-0.2-0.4-0.3-0.7-0.3c-0.3,0-0.6,0.1-0.8,0.3c-0.3,0.3-0.4,0.6-0.5,1H92.5
		L92.5,41.2z M93.1,44c-0.4,0.4-1,0.6-1.6,0.7c-0.6,0-1.2-0.3-1.5-0.7c-0.4-0.6-0.6-1.2-0.6-1.9c0-0.7,0.2-1.4,0.6-2
		c0.3-0.5,0.9-0.8,1.5-0.8c0.5,0,1,0.2,1.3,0.6c0.3,0.4,0.5,1,0.5,1.5v0.3h-3.1V42c0,0.5,0.1,1.1,0.4,1.5c0.2,0.3,0.6,0.5,1,0.5
		c0.6,0,1.2-0.4,1.6-0.9L93.1,44L93.1,44z"/>
	<path class="st1" d="M94.7,39.4h0.6l0.1,0.7c0.1-0.3,0.3-0.5,0.6-0.6c0.2-0.2,0.5-0.2,0.8-0.2c0.4,0,0.8,0.2,1,0.5
		c0.3,0.3,0.4,0.8,0.4,1.2v3.7h-0.7v-3.7c0-0.3-0.1-0.5-0.2-0.7c-0.2-0.2-0.4-0.3-0.6-0.3c-0.3,0-0.7,0.2-0.9,0.5
		c-0.2,0.3-0.4,0.7-0.3,1v3.2h-0.7V39.4L94.7,39.4z"/>
	<path class="st1" d="M100.2,37.8h0.6v1.5h1V40h-1v3.6c0,0.1,0,0.2,0.1,0.3c0.1,0.1,0.2,0.1,0.4,0.1c0.2,0,0.3-0.1,0.5-0.2v0.7
		c-0.2,0.1-0.5,0.1-0.7,0.1c-0.2,0-0.5-0.1-0.7-0.2c-0.2-0.2-0.3-0.5-0.3-0.7V40h-0.7v-0.6h0.7L100.2,37.8L100.2,37.8z"/>
	<path class="st1" d="M106,41.2c0-0.3-0.1-0.7-0.3-1c-0.2-0.2-0.4-0.3-0.7-0.3c-0.3,0-0.6,0.1-0.8,0.3c-0.3,0.3-0.4,0.6-0.5,1H106z
		 M106.6,44c-0.4,0.4-1,0.6-1.6,0.7c-0.6,0-1.2-0.3-1.5-0.7c-0.4-0.6-0.6-1.2-0.6-1.9c0-0.7,0.2-1.4,0.6-2c0.3-0.5,0.9-0.8,1.5-0.8
		c0.5,0,1,0.2,1.3,0.6c0.3,0.4,0.5,1,0.5,1.5v0.3h-3.1V42c0,0.5,0.1,1.1,0.4,1.5c0.2,0.3,0.6,0.5,1,0.5c0.6,0,1.2-0.4,1.6-0.9
		L106.6,44L106.6,44z"/>
	<path class="st1" d="M109,40.1c0.1-0.3,0.3-0.5,0.6-0.7c0.2-0.1,0.4-0.2,0.7-0.2c0.2,0,0.4,0,0.5,0.1V40c-0.2-0.1-0.3-0.1-0.5-0.1
		c-0.3,0-0.7,0.2-0.9,0.5c-0.2,0.3-0.4,0.7-0.3,1.1v3.1h-0.7v-5.2h0.6L109,40.1z"/>
	<path class="st1" d="M115.1,39.4v-1.2c0-0.4,0.1-0.7,0.3-1c0.2-0.2,0.5-0.4,0.8-0.3c0.2,0,0.4,0,0.6,0.1v0.6
		c-0.1-0.1-0.3-0.1-0.5-0.1c-0.1,0-0.3,0-0.4,0.2c-0.1,0.1-0.1,0.2-0.1,0.4v1.4h1v0.6h-1v4.6h-0.7v-4.6h-0.7v-0.6L115.1,39.4
		L115.1,39.4z"/>
	<path class="st1" d="M119.6,39.9c-0.4,0-0.8,0.2-1,0.6c-0.2,0.5-0.4,1-0.3,1.6c0,0.5,0.1,1,0.3,1.4c0.2,0.4,0.6,0.6,0.9,0.6
		c0.4,0,0.8-0.2,0.9-0.5c0.3-0.5,0.4-1,0.4-1.6c0-0.5-0.1-1.1-0.4-1.5C120.3,40.1,120,39.9,119.6,39.9 M119.6,39.3
		c0.6,0,1.1,0.3,1.4,0.7c0.4,0.6,0.6,1.3,0.6,2c0,0.5-0.1,0.9-0.2,1.3c-0.1,0.4-0.4,0.7-0.7,1c-0.8,0.6-1.9,0.5-2.5-0.3
		c0,0-0.1-0.1-0.1-0.1c-0.4-0.6-0.6-1.2-0.5-1.9c0-0.5,0.1-1.1,0.3-1.6c0.2-0.4,0.5-0.7,0.8-0.9C119,39.4,119.3,39.3,119.6,39.3"/>
	<path class="st1" d="M123.8,40.1c0.1-0.3,0.3-0.5,0.5-0.7c0.2-0.1,0.4-0.2,0.7-0.2c0.2,0,0.4,0,0.5,0.1V40
		c-0.2-0.1-0.4-0.1-0.5-0.1c-0.4,0-0.7,0.2-0.9,0.5c-0.2,0.3-0.4,0.7-0.4,1.1v3.1h-0.7v-5.2h0.6L123.8,40.1L123.8,40.1z"/>
	<path class="st1" d="M2.6,51.2h0.6v1.5h1v0.6h-1v3.6c0,0.1,0,0.2,0.1,0.3c0.1,0.1,0.2,0.1,0.4,0.1c0.2,0,0.4-0.1,0.5-0.2v0.7
		C4,58,3.8,58,3.5,58c-0.2,0-0.5-0.1-0.7-0.2c-0.2-0.2-0.3-0.5-0.3-0.7v-3.7H1.9v-0.6h0.7L2.6,51.2L2.6,51.2z"/>
	<path class="st1" d="M5.1,50.3h0.7v3.1c0.1-0.2,0.4-0.5,0.6-0.6c0.2-0.1,0.5-0.2,0.8-0.2c0.4,0,0.8,0.2,1,0.5
		c0.3,0.3,0.4,0.7,0.4,1.1v3.7H7.8v-3.7c0-0.2-0.1-0.5-0.2-0.7c-0.1-0.2-0.4-0.3-0.6-0.3c-0.3,0-0.7,0.2-0.9,0.4
		c-0.2,0.3-0.4,0.7-0.3,1v3.2H5.1C5.1,57.9,5.1,50.3,5.1,50.3z"/>
	<path class="st1" d="M12.5,54.5c0-0.3-0.1-0.7-0.3-1c-0.2-0.2-0.4-0.3-0.7-0.3c-0.3,0-0.6,0.1-0.8,0.3c-0.3,0.3-0.5,0.6-0.5,1H12.5
		z M13.1,57.4c-0.5,0.4-1,0.6-1.6,0.7c-0.6,0-1.2-0.3-1.5-0.7c-0.4-0.6-0.6-1.2-0.6-1.9c0-0.7,0.2-1.4,0.6-2
		c0.4-0.5,0.9-0.8,1.5-0.8c0.5,0,1,0.2,1.3,0.6c0.3,0.4,0.5,1,0.5,1.5v0.3h-3.1v0.3c0,0.5,0.1,1.1,0.4,1.5c0.2,0.3,0.6,0.5,1,0.5
		c0.6-0.1,1.2-0.4,1.6-0.9L13.1,57.4L13.1,57.4z"/>
	<path class="st1" d="M18.6,51.3l-0.8,3.4h1.7C19.4,54.7,18.6,51.3,18.6,51.3z M18.2,50.3h0.7l2.1,7.6h-0.8l-0.6-2.6h-2l-0.6,2.6
		h-0.8C16.1,57.9,18.2,50.3,18.2,50.3z"/>
	<path class="st1" d="M24.5,53.8c-0.1-0.2-0.3-0.3-0.5-0.4c-0.2-0.1-0.4-0.1-0.5-0.1c-0.4,0-0.8,0.2-1,0.6c-0.3,0.5-0.4,1-0.4,1.5
		c0,0.5,0.1,1,0.3,1.5c0.2,0.3,0.5,0.6,0.9,0.6c0.3,0,0.6-0.2,0.8-0.4c0.2-0.3,0.3-0.7,0.3-1.1V53.8L24.5,53.8z M24.5,50.3h0.7v7.6
		h-0.7v-0.7c-0.2,0.2-0.3,0.5-0.6,0.6C23.7,58,23.4,58,23.2,58c-0.5,0-1.1-0.3-1.3-0.8c-0.3-0.6-0.5-1.2-0.5-1.9
		c0-0.7,0.2-1.4,0.6-1.9c0.3-0.5,0.8-0.8,1.4-0.8c0.2,0,0.4,0,0.6,0.1c0.2,0.1,0.4,0.2,0.6,0.4L24.5,50.3L24.5,50.3z"/>
	<polygon class="st1" points="25.8,52.7 26.5,52.7 27.7,57 28.9,52.7 29.7,52.7 28.1,57.9 27.4,57.9 	"/>
	<path class="st1" d="M33,55.2c-0.6,0-1.2,0.2-1.7,0.4c-0.2,0.2-0.4,0.5-0.3,0.8c0,0.2,0.1,0.5,0.3,0.7c0.2,0.2,0.4,0.3,0.7,0.3
		c0.3,0,0.6-0.2,0.8-0.4c0.2-0.3,0.3-0.7,0.3-1.1L33,55.2L33,55.2z M30.7,53.1c0.4-0.3,0.9-0.4,1.4-0.5c0.5,0,0.9,0.1,1.2,0.5
		c0.3,0.4,0.4,0.8,0.4,1.3v2.7c0,0.2,0.1,0.3,0.3,0.3c0.1,0,0.2,0,0.3-0.1v0.6C34.1,58,34,58,33.8,58c-0.5,0-0.7-0.3-0.7-0.8
		c-0.2,0.2-0.3,0.5-0.6,0.6C32.2,57.9,32,58,31.7,58c-0.4,0-0.8-0.2-1-0.4c-0.3-0.3-0.4-0.7-0.4-1.1c0-0.4,0.2-0.9,0.5-1.2
		c0.3-0.3,1.1-0.5,2.2-0.6v-0.5c0-0.3-0.1-0.5-0.3-0.7c-0.2-0.2-0.4-0.3-0.7-0.3c-0.5,0-1,0.2-1.4,0.6L30.7,53.1L30.7,53.1z"/>
	<path class="st1" d="M35,52.7h0.6l0.1,0.7c0.2-0.2,0.3-0.5,0.6-0.6c0.2-0.2,0.5-0.2,0.8-0.2c0.4,0,0.8,0.2,1,0.5
		c0.3,0.3,0.4,0.8,0.4,1.2v3.7h-0.7v-3.7c0-0.3-0.1-0.5-0.2-0.7c-0.2-0.2-0.4-0.3-0.6-0.3c-0.3,0-0.7,0.2-0.9,0.5
		c-0.2,0.3-0.4,0.7-0.4,1v3.2h-0.6L35,52.7L35,52.7z"/>
	<path class="st1" d="M42.8,57.7C42.4,57.9,42,58,41.6,58c-0.6,0-1.2-0.3-1.5-0.8c-0.4-0.5-0.6-1.2-0.6-1.9c0-0.7,0.2-1.4,0.6-2
		c0.4-0.5,1-0.8,1.6-0.8c0.4,0,0.8,0.1,1.1,0.3v0.8c-0.3-0.3-0.7-0.4-1-0.5c-0.5,0-0.9,0.2-1.1,0.6c-0.3,0.4-0.5,1-0.5,1.5
		c0,0.5,0.1,1,0.4,1.4c0.2,0.4,0.7,0.6,1.1,0.6c0.4,0,0.8-0.2,1.1-0.4L42.8,57.7L42.8,57.7z"/>
	<path class="st1" d="M46.5,54.5c0-0.3-0.1-0.7-0.3-1c-0.2-0.2-0.5-0.3-0.7-0.3c-0.3,0-0.6,0.1-0.8,0.3c-0.3,0.3-0.5,0.6-0.5,1H46.5
		L46.5,54.5z M47.1,57.4c-0.5,0.4-1,0.6-1.6,0.7c-0.6,0-1.2-0.3-1.5-0.7c-0.4-0.6-0.6-1.2-0.6-1.9c0-0.7,0.2-1.4,0.6-2
		c0.3-0.5,0.9-0.8,1.5-0.8c0.5,0,1,0.2,1.3,0.6c0.3,0.4,0.5,1,0.5,1.5v0.3h-3.1v0.3c0,0.5,0.1,1.1,0.4,1.5c0.2,0.3,0.6,0.5,1,0.5
		c0.6-0.1,1.2-0.4,1.6-0.9L47.1,57.4L47.1,57.4z"/>
	<path class="st1" d="M51.2,53.5c0.1-0.3,0.3-0.5,0.5-0.7c0.2-0.2,0.5-0.2,0.7-0.2c0.3,0,0.7,0.1,0.9,0.4c0.2,0.3,0.3,0.7,0.3,1v3.9
		H53V54c0-0.2-0.1-0.4-0.2-0.6c-0.1-0.1-0.3-0.2-0.5-0.2c-0.3,0-0.6,0.2-0.7,0.4c-0.2,0.3-0.3,0.6-0.3,0.9v3.3h-0.7V54
		c0-0.2,0-0.4-0.2-0.6c-0.1-0.1-0.3-0.2-0.5-0.2c-0.3,0-0.6,0.2-0.8,0.4c-0.2,0.3-0.3,0.7-0.3,1v3.2h-0.7v-5.2h0.6l0.1,0.7
		c0.1-0.2,0.3-0.4,0.5-0.6c0.2-0.1,0.5-0.2,0.7-0.2c0.2,0,0.5,0.1,0.7,0.2C50.9,53,51.1,53.2,51.2,53.5"/>
	<path class="st1" d="M57.7,54.5c0-0.3-0.1-0.7-0.3-1c-0.2-0.2-0.4-0.3-0.7-0.3c-0.3,0-0.6,0.1-0.8,0.3c-0.3,0.3-0.4,0.6-0.5,1
		C55.4,54.5,57.7,54.5,57.7,54.5z M58.3,57.4c-0.4,0.4-1,0.6-1.6,0.7c-0.6,0-1.2-0.3-1.5-0.7c-0.4-0.6-0.6-1.2-0.6-1.9
		c0-0.7,0.2-1.4,0.6-2c0.3-0.5,0.9-0.8,1.5-0.8c0.5,0,1,0.2,1.3,0.6c0.3,0.4,0.5,1,0.5,1.5v0.3h-3.1v0.3c0,0.5,0.1,1.1,0.4,1.5
		c0.2,0.3,0.6,0.5,1,0.5c0.6-0.1,1.2-0.4,1.6-0.9L58.3,57.4L58.3,57.4z"/>
	<path class="st1" d="M59.4,52.7H60l0.1,0.7c0.2-0.3,0.3-0.5,0.6-0.6c0.2-0.2,0.5-0.2,0.8-0.2c0.4,0,0.8,0.2,1,0.5
		c0.3,0.3,0.4,0.8,0.4,1.2v3.7h-0.7v-3.7c0-0.3-0.1-0.5-0.2-0.7c-0.2-0.2-0.4-0.3-0.6-0.3c-0.3,0-0.7,0.2-0.9,0.5
		c-0.2,0.3-0.4,0.7-0.3,1v3.2h-0.7L59.4,52.7L59.4,52.7z"/>
	<path class="st1" d="M64.2,51.2h0.6v1.5h1v0.6h-1v3.6c0,0.1,0,0.2,0.1,0.3c0.1,0.1,0.2,0.1,0.3,0.1c0.2,0,0.4-0.1,0.5-0.2v0.7
		C65.6,58,65.4,58,65.1,58c-0.2,0-0.5-0.1-0.7-0.2c-0.2-0.2-0.3-0.5-0.3-0.7v-3.7h-0.7v-0.6h0.8L64.2,51.2L64.2,51.2z"/>
	<path class="st1" d="M71.1,53.2c-0.4,0-0.8,0.2-1,0.6c-0.2,0.5-0.4,1-0.3,1.6c0,0.5,0.1,1,0.3,1.4c0.2,0.4,0.6,0.6,0.9,0.6
		c0.4,0,0.8-0.2,0.9-0.5c0.3-0.5,0.4-1,0.4-1.6c0-0.5-0.1-1.1-0.4-1.5C71.7,53.5,71.4,53.3,71.1,53.2 M71,52.6
		c0.6,0,1.1,0.3,1.4,0.7c0.4,0.6,0.6,1.3,0.6,2c0,0.5-0.1,0.9-0.2,1.3c-0.1,0.4-0.4,0.7-0.7,1c-0.3,0.2-0.7,0.4-1.1,0.4
		c-0.6,0-1.1-0.3-1.5-0.8C69.1,56.7,69,56,69,55.4c0-0.5,0.1-1.1,0.3-1.6c0.2-0.4,0.4-0.7,0.8-0.9C70.4,52.7,70.7,52.6,71,52.6"/>
	<path class="st1" d="M74.1,52.7v-1.2c0-0.4,0.1-0.7,0.3-1c0.2-0.2,0.5-0.4,0.8-0.3c0.2,0,0.4,0,0.6,0.1v0.6
		c-0.2-0.1-0.3-0.1-0.5-0.1c-0.1,0-0.3,0-0.4,0.2c-0.1,0.1-0.2,0.2-0.2,0.4v1.4h1v0.6h-1v4.6h-0.7v-4.6h-0.7v-0.6L74.1,52.7
		L74.1,52.7z"/>
	<path class="st1" d="M79.5,56.4c0.3,0.2,0.6,0.5,0.9,0.7c0.2,0.1,0.5,0.2,0.7,0.2c0.4,0,0.8-0.2,1.1-0.4c0.3-0.3,0.5-0.7,0.5-1.1
		c0-0.3-0.1-0.6-0.3-0.8c-0.3-0.3-0.7-0.5-1.2-0.7c-1.2-0.4-1.7-1.1-1.7-2c0-0.5,0.2-1.1,0.6-1.5c0.4-0.4,0.9-0.6,1.5-0.6
		c0.5,0,1,0.2,1.4,0.5v1c-0.2-0.2-0.5-0.4-0.8-0.6C82,51,81.8,51,81.6,51c-0.7,0-1.3,0.6-1.3,1.3c0,0.3,0.1,0.6,0.3,0.8
		c0.4,0.3,0.8,0.5,1.2,0.7c0.3,0.1,0.6,0.3,0.9,0.4c0.2,0.2,0.4,0.4,0.6,0.6c0.2,0.3,0.2,0.6,0.2,0.9c0,0.6-0.2,1.2-0.7,1.6
		c-0.4,0.4-1,0.7-1.6,0.7c-0.6,0-1.2-0.2-1.7-0.6L79.5,56.4L79.5,56.4z"/>
	<path class="st1" d="M86.2,53.2c-0.4,0-0.8,0.2-1,0.6c-0.2,0.5-0.4,1-0.3,1.6c0,0.5,0.1,1,0.3,1.4c0.2,0.4,0.6,0.6,0.9,0.6
		c0.4,0,0.8-0.2,0.9-0.5c0.3-0.5,0.4-1,0.4-1.6c0-0.5-0.1-1.1-0.4-1.5C86.9,53.5,86.6,53.3,86.2,53.2 M86.2,52.6
		c0.6,0,1.1,0.3,1.4,0.7c0.4,0.6,0.6,1.3,0.6,2c0,0.5-0.1,0.9-0.2,1.3c-0.1,0.4-0.4,0.7-0.7,1c-0.8,0.6-1.9,0.5-2.5-0.3
		c0,0-0.1-0.1-0.1-0.1c-0.4-0.6-0.6-1.2-0.5-1.9c0-0.5,0.1-1.1,0.3-1.6c0.2-0.4,0.5-0.7,0.8-0.9C85.6,52.7,85.9,52.6,86.2,52.6"/>
	<path class="st1" d="M92.2,57.7c-0.3,0.2-0.8,0.3-1.2,0.3c-0.6,0-1.2-0.3-1.5-0.8c-0.4-0.5-0.6-1.2-0.6-1.9c0-0.7,0.2-1.4,0.6-2
		c0.4-0.5,1-0.8,1.6-0.8c0.4,0,0.8,0.1,1.1,0.3v0.8c-0.3-0.3-0.7-0.4-1.1-0.5c-0.4,0-0.9,0.2-1.1,0.6c-0.3,0.4-0.5,1-0.4,1.5
		c0,0.5,0.1,1,0.4,1.4c0.2,0.4,0.7,0.6,1.1,0.6c0.4,0,0.8-0.2,1.1-0.4L92.2,57.7L92.2,57.7z"/>
	<path class="st1" d="M93.1,52.7h0.7v5.2h-0.7C93.1,57.9,93.1,52.7,93.1,52.7z M93.4,50.4c0.3,0,0.4,0.2,0.4,0.6s-0.1,0.6-0.4,0.6
		S93,51.4,93,51.1S93.2,50.4,93.4,50.4"/>
	<path class="st1" d="M97.5,55.2c-0.6,0-1.2,0.2-1.7,0.4c-0.4,0.4-0.5,1-0.1,1.4c0,0,0,0,0,0c0.2,0.2,0.4,0.3,0.7,0.3
		c0.3,0,0.6-0.2,0.8-0.4c0.2-0.3,0.3-0.7,0.3-1.1L97.5,55.2L97.5,55.2z M95.1,53.1c0.4-0.3,0.9-0.4,1.4-0.5c0.5,0,0.9,0.1,1.2,0.5
		c0.3,0.4,0.4,0.8,0.4,1.3v2.7c0,0.2,0.1,0.3,0.3,0.3c0.1,0,0.2,0,0.3-0.1v0.6C98.6,58,98.4,58,98.2,58c-0.5,0-0.7-0.3-0.7-0.8
		c-0.2,0.2-0.3,0.5-0.6,0.6c-0.2,0.1-0.5,0.2-0.7,0.2c-0.4,0-0.8-0.2-1-0.4c-0.3-0.3-0.4-0.7-0.4-1.1c0-0.4,0.2-0.9,0.5-1.2
		c0.3-0.3,1.1-0.5,2.2-0.6v-0.5c0-0.3-0.1-0.5-0.3-0.7c-0.2-0.2-0.4-0.3-0.7-0.3c-0.5,0-1,0.2-1.4,0.6
		C95.1,53.8,95.1,53.1,95.1,53.1z"/>
	<rect x="99.5" y="50.3" class="st1" width="0.7" height="7.6"/>
	<path class="st1" d="M104.9,50.3l1.6,4.2l1.6-4.2h0.9v7.6h-0.7v-6.8c-0.1,0.5-0.3,1.1-0.5,1.6l-1.3,3.4l-1.1-2.9
		c-0.2-0.5-0.5-1.2-0.8-2.1c0.1,1.6,0.1,2.5,0.1,2.7v4H104v-7.6C104,50.3,104.9,50.3,104.9,50.3z"/>
	<path class="st1" d="M113.2,54.5c0-0.3-0.1-0.7-0.3-1c-0.2-0.2-0.4-0.3-0.7-0.3c-0.3,0-0.6,0.1-0.8,0.3c-0.3,0.3-0.4,0.6-0.5,1
		C110.9,54.5,113.2,54.5,113.2,54.5z M113.8,57.4c-0.4,0.4-1,0.6-1.6,0.7c-0.6,0-1.2-0.3-1.5-0.7c-0.4-0.6-0.6-1.2-0.6-1.9
		c0-0.7,0.2-1.4,0.6-2c0.3-0.5,0.9-0.8,1.5-0.8c0.5,0,1,0.2,1.3,0.6c0.3,0.4,0.5,1,0.5,1.5v0.3h-3.1v0.3c0,0.5,0.1,1.1,0.4,1.5
		c0.2,0.3,0.6,0.5,1,0.5c0.6-0.1,1.2-0.4,1.6-0.9L113.8,57.4L113.8,57.4z"/>
	<path class="st1" d="M117.7,53.8c-0.1-0.2-0.3-0.3-0.5-0.4c-0.2-0.1-0.4-0.1-0.5-0.1c-0.4,0-0.8,0.2-1,0.6c-0.3,0.5-0.4,1-0.4,1.5
		c0,0.5,0.1,1,0.3,1.5c0.2,0.3,0.5,0.6,0.9,0.6c0.3,0,0.6-0.2,0.8-0.4c0.2-0.3,0.4-0.7,0.3-1.1V53.8L117.7,53.8z M117.7,50.3h0.7
		v7.6h-0.7v-0.7c-0.1,0.2-0.4,0.5-0.6,0.6c-0.2,0.1-0.5,0.2-0.7,0.2c-0.6,0-1.1-0.3-1.3-0.8c-0.3-0.6-0.5-1.2-0.5-1.9
		c0-0.7,0.2-1.4,0.6-1.9c0.3-0.5,0.8-0.8,1.4-0.8c0.2,0,0.4,0,0.6,0.1c0.2,0.1,0.4,0.2,0.6,0.4L117.7,50.3L117.7,50.3z"/>
	<path class="st1" d="M119.6,52.7h0.7v5.2h-0.7C119.6,57.9,119.6,52.7,119.6,52.7z M120,50.4c0.3,0,0.4,0.2,0.4,0.6
		s-0.1,0.6-0.4,0.6s-0.4-0.2-0.4-0.6S119.7,50.4,120,50.4"/>
	<path class="st1" d="M124,55.2c-0.6,0-1.2,0.2-1.7,0.4c-0.4,0.4-0.5,1-0.1,1.4c0,0,0,0,0,0c0.2,0.2,0.4,0.3,0.6,0.3
		c0.3,0,0.6-0.2,0.8-0.4c0.2-0.3,0.3-0.7,0.3-1.1L124,55.2L124,55.2z M121.6,53.1c0.4-0.3,0.9-0.4,1.4-0.5c0.5,0,0.9,0.1,1.2,0.5
		c0.3,0.4,0.4,0.8,0.4,1.3v2.7c0,0.1,0.1,0.3,0.2,0.3c0,0,0.1,0,0.1,0c0.1,0,0.2,0,0.3-0.1v0.6c-0.2,0.1-0.4,0.1-0.5,0.1
		c-0.5,0-0.7-0.3-0.7-0.8c-0.1,0.2-0.4,0.5-0.6,0.6c-0.2,0.1-0.5,0.2-0.7,0.2c-0.4,0-0.8-0.2-1-0.4c-0.3-0.3-0.4-0.7-0.4-1.1
		c0-0.4,0.2-0.9,0.5-1.2c0.3-0.3,1.1-0.5,2.2-0.6v-0.5c0-0.3-0.1-0.5-0.3-0.7c-0.2-0.2-0.4-0.3-0.7-0.3c-0.5,0-1,0.2-1.4,0.6
		L121.6,53.1L121.6,53.1z"/>
</g>
</svg>
